<svg width="133" height="133" viewBox="0 0 133 133" fill="none" xmlns="http://www.w3.org/2000/svg">
<g filter="url(#filter0_d_221_36)">
<circle cx="62.5" cy="62.5" r="56.5" fill="#FFFDF7"/>
</g>
<path d="M82.0565 42.9435C76.9342 37.8213 70.1665 35 63 35C55.8335 35 49.0657 37.8213 43.9435 42.9435C38.8213 48.0657 36 54.8335 36 62C36 69.1665 38.8213 75.9342 43.9435 81.0565C49.0657 86.1787 55.8335 89 63 89C70.1665 89 76.9342 86.1787 82.0565 81.0565C87.1792 75.9342 90 69.1665 90 62C90 54.8335 87.1792 48.0657 82.0565 42.9435ZM77.4643 59.9337H68.8271C67.6288 60.884 64.1575 63.7359 63.7437 64.0663H77.4643V68.199H58.6193C57.7099 68.9017 56.8839 69.5625 56.1397 70.141C54.9413 71.0504 54.5281 71.9598 54.8176 72.8687C55.4369 74.6046 58.4955 76.4643 63 76.4643C66.3061 76.4643 69.736 75.1831 70.852 73.5714L74.2819 75.9273C72.0504 79.1505 67.0084 80.5969 63 80.5969C57.0491 80.5969 52.2137 78.0345 50.933 74.1913C50.2302 72.125 50.6849 69.9758 52.2137 68.199H48.5357V64.0663H57.1729C58.8259 62.7437 60.5618 61.2972 62.2563 59.9337H48.5357V55.801H67.3807C68.331 55.0159 69.199 54.396 69.8189 53.8999C71.0172 52.991 71.4719 52.0816 71.1824 51.1313C70.604 49.3954 67.5459 47.5357 63 47.5357C59.6939 47.5357 56.264 48.8169 55.148 50.4286L51.7595 48.0727C53.9496 44.8495 58.9916 43.4031 63 43.4031C68.9509 43.4031 73.8278 46.0064 75.1085 49.8501C75.7698 51.9579 75.3151 54.0242 73.8278 55.801H77.4643V59.9337Z" fill="#F09642"/>
<path d="M90.1499 79.15H84.85V73.8499C84.85 72.5522 83.7974 71.5 82.4999 71.5C81.2024 71.5 80.15 72.5524 80.15 73.8499V79.15H74.8499C73.5524 79.15 72.5 80.2024 72.5 81.4999C72.5 82.7974 73.5522 83.85 74.8499 83.85H80.15V89.1499C80.15 90.4474 81.2022 91.5 82.4999 91.5C83.7976 91.5 84.85 90.4476 84.85 89.1499V83.85H90.1499C91.4476 83.85 92.5 82.7976 92.5 81.4999C92.5 80.2022 91.4474 79.15 90.1499 79.15Z" fill="#FFFDF7" stroke="url(#paint0_linear_221_36)" stroke-width="3"/>
<path d="M88.4924 59.2748C89.8773 73.4824 79.4312 86.1277 65.1604 87.5188C58.2699 88.1904 51.7475 86.1155 46.6883 82.1904L78.0101 40.9396C83.7556 45.1348 87.7497 51.6559 88.4924 59.2748Z" fill="#FDFA7B" fill-opacity="0.17"/>
<defs>
<filter id="filter0_d_221_36" x="0" y="0" width="133" height="133" filterUnits="userSpaceOnUse" color-interpolation-filters="sRGB">
<feFlood flood-opacity="0" result="BackgroundImageFix"/>
<feColorMatrix in="SourceAlpha" type="matrix" values="0 0 0 0 0 0 0 0 0 0 0 0 0 0 0 0 0 0 127 0" result="hardAlpha"/>
<feOffset dx="4" dy="4"/>
<feGaussianBlur stdDeviation="5"/>
<feColorMatrix type="matrix" values="0 0 0 0 0.779167 0 0 0 0 0.779167 0 0 0 0 0.779167 0 0 0 0.25 0"/>
<feBlend mode="normal" in2="BackgroundImageFix" result="effect1_dropShadow_221_36"/>
<feBlend mode="normal" in="SourceGraphic" in2="effect1_dropShadow_221_36" result="shape"/>
</filter>
<linearGradient id="paint0_linear_221_36" x1="76.8333" y1="73" x2="86.5476" y2="87.1667" gradientUnits="userSpaceOnUse">
<stop stop-color="#F09642"/>
<stop offset="1" stop-color="#F0DF42"/>
</linearGradient>
</defs>
</svg>
