<svg width="100" height="100" viewBox="0 0 100 100" fill="none" xmlns="http://www.w3.org/2000/svg">
<g filter="url(#filter0_d_221_50)">
<circle cx="46" cy="46" r="40" fill="#FFFDF7"/>
</g>
<g clip-path="url(#clip0_221_50)">
<path d="M46 23C33.2964 23 23 33.2974 23 46C23 58.7026 33.2964 69 46 69C58.7036 69 69 58.7016 69 46C69 33.2984 58.7026 23 46 23ZM47.3923 56.2454V58.9078C47.3923 59.3232 47.069 59.6254 46.6526 59.6254H44.878C44.4616 59.6254 44.1263 59.3232 44.1263 58.9078V56.4796C42.4928 56.4055 40.8453 56.0572 39.5982 55.5827C38.9225 55.3265 38.5462 54.6029 38.7254 53.9022L39.0146 52.7752C39.1157 52.3798 39.38 52.0495 39.7413 51.8644C40.1026 51.6762 40.527 51.6572 40.9063 51.8023C42.0944 52.2617 43.4977 52.596 44.9961 52.596C46.9038 52.596 48.21 51.8594 48.21 50.5201C48.21 49.248 47.139 48.4442 44.6608 47.6065C41.0785 46.4014 38.6253 44.7278 38.6253 41.4799C38.6253 38.5342 40.7102 36.2241 44.2744 35.5204V33.0922C44.2744 32.6768 44.6297 32.3045 45.0461 32.3045H46.8207C47.2371 32.3045 47.5424 32.6768 47.5424 33.0922V35.2852C49.1008 35.3523 50.2259 35.5835 51.1667 35.8898C51.8784 36.122 52.2987 36.8677 52.1116 37.5943L51.8573 38.6032C51.7583 38.9876 51.504 39.3139 51.1557 39.5021C50.8074 39.6902 50.396 39.7243 50.0197 39.5952C49.1649 39.3019 48.0499 39.0356 46.6366 39.0356C44.4606 39.0356 43.757 39.9735 43.757 40.9114C43.757 42.0164 44.929 42.719 47.7746 43.791C51.7583 45.1973 53.3587 47.0389 53.3587 50.0507C53.3577 53.0304 51.2528 55.5767 47.3923 56.2454Z" fill="#F09642"/>
</g>
<path d="M59.8 55.7V59.8H55.7C54.4852 59.8 53.5 60.7852 53.5 61.9999C53.5 63.2146 54.485 64.2 55.7 64.2H59.8V68.2999C59.8 69.5146 60.785 70.5 61.9999 70.5C63.2148 70.5 64.2 69.5148 64.2 68.2999V64.2H68.2999C69.5148 64.2 70.5 63.2148 70.5 61.9999C70.5 60.785 69.5146 59.8 68.2999 59.8H64.2V55.7C64.2 54.485 63.2146 53.5 61.9999 53.5C60.7852 53.5 59.8 54.4852 59.8 55.7Z" fill="#FFFDF7" stroke="url(#paint0_linear_221_50)" stroke-width="3"/>
<path d="M68.219 45.8556C68.7426 57.6039 59.4842 67.5594 47.5397 68.0918C41.7724 68.3489 36.4334 66.3621 32.3947 62.9159L60.3031 30.3213C64.9013 34.0191 67.9381 39.5555 68.219 45.8556Z" fill="#FDFA7B" fill-opacity="0.13"/>
<defs>
<filter id="filter0_d_221_50" x="0" y="0" width="100" height="100" filterUnits="userSpaceOnUse" color-interpolation-filters="sRGB">
<feFlood flood-opacity="0" result="BackgroundImageFix"/>
<feColorMatrix in="SourceAlpha" type="matrix" values="0 0 0 0 0 0 0 0 0 0 0 0 0 0 0 0 0 0 127 0" result="hardAlpha"/>
<feOffset dx="4" dy="4"/>
<feGaussianBlur stdDeviation="5"/>
<feColorMatrix type="matrix" values="0 0 0 0 0.779167 0 0 0 0 0.779167 0 0 0 0 0.779167 0 0 0 0.25 0"/>
<feBlend mode="normal" in2="BackgroundImageFix" result="effect1_dropShadow_221_50"/>
<feBlend mode="normal" in="SourceGraphic" in2="effect1_dropShadow_221_50" result="shape"/>
</filter>
<linearGradient id="paint0_linear_221_50" x1="57.3333" y1="55" x2="65.3333" y2="66.6667" gradientUnits="userSpaceOnUse">
<stop stop-color="#F09642"/>
<stop offset="1" stop-color="#F0DF42"/>
</linearGradient>
<clipPath id="clip0_221_50">
<rect width="46" height="46" fill="white" transform="translate(23 23)"/>
</clipPath>
</defs>
</svg>
