<svg width="122" height="122" viewBox="0 0 122 122" fill="none" xmlns="http://www.w3.org/2000/svg">
<g filter="url(#filter0_d_221_41)">
<circle cx="57" cy="57" r="51" fill="#FFFDF7"/>
</g>
<g clip-path="url(#clip0_221_41)">
<path d="M56.5 26C39.1037 26 25 40.1037 25 57.5C25 74.8963 39.1037 89 56.5 89C73.8963 89 88 74.8963 88 57.5C88 40.1037 73.8963 26 56.5 26ZM67.4926 73.4574C66.5463 73.8852 65.5611 74.2481 64.55 74.5204C60.713 75.5833 56.8759 75.6222 53.0519 74.3778C48.437 72.887 45.3778 69.737 43.55 65.3296C43.2 64.4741 42.9667 63.5796 42.6944 62.6852H39.0778C38.4685 62.6852 37.9889 62.1926 37.9889 61.5963V59.1593C37.9889 58.55 38.4815 58.0704 39.0778 58.0704H42.0722C42.0722 57.3963 42.0722 56.7611 42.0722 56.087H39.0778C38.4685 56.087 37.9889 55.5944 37.9889 54.9981V52.5611C37.9889 51.9519 38.4815 51.4722 39.0778 51.4722H42.8889L43.0185 51.0963C44.0426 47.8426 45.8056 45.0556 48.5148 42.9556C50.6667 41.2833 53.1556 40.363 55.8259 39.9352C59.6241 39.3259 63.3056 39.8444 66.8704 41.2444C67.1037 41.3352 67.3241 41.4389 67.5444 41.5685C68.4 42.0741 68.6204 42.7093 68.2444 43.6296C67.8426 44.5889 67.4407 45.5611 67 46.5074C66.6241 47.3241 66.1056 47.5833 65.2241 47.3889C64.0185 47.1167 62.8389 46.7407 61.6333 46.4944C59.0926 45.9759 56.5648 45.95 54.0889 46.9222C51.963 47.7648 50.6667 49.3852 49.7852 51.4074C49.7722 51.4333 49.7722 51.4593 49.7722 51.4852H57.1741C57.7833 51.4852 58.263 51.9778 58.263 52.5741V55.0111C58.263 55.6204 57.7704 56.1 57.1741 56.1H48.7222C48.7093 56.7481 48.7222 57.3963 48.7222 58.0833H57.187C57.7963 58.0833 58.2759 58.5759 58.2759 59.1722V61.6093C58.2759 62.2185 57.7833 62.6981 57.187 62.6981H49.4611C50.3944 65.3685 51.9111 67.4296 54.763 68.3241C57.0444 69.037 59.3389 68.9981 61.6463 68.5185C62.8389 68.2722 64.0056 67.9093 65.1981 67.637C66.1315 67.4296 66.637 67.6759 67.0259 68.5315C67.4667 69.4907 67.8815 70.463 68.2704 71.4481C68.6333 72.3296 68.4 73.0426 67.4926 73.4574Z" fill="#F09642"/>
</g>
<path d="M86.452 56.9192C87.176 73.1602 74.377 86.9229 57.8648 87.6589C49.8919 88.0143 42.5112 85.2677 36.928 80.5036L75.509 35.4443C81.8656 40.5563 86.0638 48.2098 86.452 56.9192Z" fill="#FDFA7B" fill-opacity="0.13"/>
<path d="M87.1499 78.15H81.85V72.8499C81.85 71.5522 80.7974 70.5 79.4999 70.5C78.2024 70.5 77.15 71.5524 77.15 72.8499V78.15H71.8499C70.5524 78.15 69.5 79.2024 69.5 80.4999C69.5 81.7974 70.5522 82.85 71.8499 82.85H77.15V88.1499C77.15 89.4474 78.2022 90.5 79.4999 90.5C80.7976 90.5 81.85 89.4476 81.85 88.1499V82.85H87.1499C88.4476 82.85 89.5 81.7976 89.5 80.4999C89.5 79.2022 88.4474 78.15 87.1499 78.15Z" fill="#FFFDF7" stroke="url(#paint0_linear_221_41)" stroke-width="3"/>
<defs>
<filter id="filter0_d_221_41" x="0" y="0" width="122" height="122" filterUnits="userSpaceOnUse" color-interpolation-filters="sRGB">
<feFlood flood-opacity="0" result="BackgroundImageFix"/>
<feColorMatrix in="SourceAlpha" type="matrix" values="0 0 0 0 0 0 0 0 0 0 0 0 0 0 0 0 0 0 127 0" result="hardAlpha"/>
<feOffset dx="4" dy="4"/>
<feGaussianBlur stdDeviation="5"/>
<feColorMatrix type="matrix" values="0 0 0 0 0.779167 0 0 0 0 0.779167 0 0 0 0 0.779167 0 0 0 0.25 0"/>
<feBlend mode="normal" in2="BackgroundImageFix" result="effect1_dropShadow_221_41"/>
<feBlend mode="normal" in="SourceGraphic" in2="effect1_dropShadow_221_41" result="shape"/>
</filter>
<linearGradient id="paint0_linear_221_41" x1="73.8333" y1="72" x2="83.5476" y2="86.1667" gradientUnits="userSpaceOnUse">
<stop stop-color="#F09642"/>
<stop offset="1" stop-color="#F0DF42"/>
</linearGradient>
<clipPath id="clip0_221_41">
<rect width="63" height="63" fill="white" transform="translate(25 26)"/>
</clipPath>
</defs>
</svg>
