<svg width="51" height="45" viewBox="0 0 51 45" fill="none" xmlns="http://www.w3.org/2000/svg">
<path d="M39.5377 29.4563C39.5377 39.8573 31.2269 45 20.5148 45C9.8028 45 0 36.9304 0 26.5294C0 16.1284 5.22196 12.7967 10.0709 12.7966C14.7093 12.7966 18.7809 17.0852 22.7528 18.9534C27.9538 21.3998 39.5377 23.559 39.5377 29.4563Z" fill="#F09642"/>
<g clip-path="url(#clip0_221_749)">
<path d="M50.3129 14.3196C50.7045 14.3636 50.9998 14.6857 50.9995 15.0685V21.0958C50.9996 21.4799 50.7021 21.8025 50.309 21.8448L46.4641 22.2592C46.1879 23.139 45.8241 23.9906 45.3778 24.802L47.7934 27.7343M50.3129 14.3196L46.4681 13.9052C46.1918 13.0254 45.828 12.1738 45.3818 11.3624L47.7981 8.43004M50.3129 14.3196L50.2593 14.8167L50.2579 14.8166C50.4076 14.8338 50.4996 14.9518 50.4995 15.0681V15.0685V21.0958V21.0959C50.4996 21.2128 50.4064 21.3314 50.2556 21.3476L50.2554 21.3476L46.4106 21.762L46.0851 21.7971L45.9871 22.1094C45.7209 22.9574 45.3701 23.7785 44.9397 24.561L44.7763 24.8581L44.9919 25.1199L47.4073 28.052L47.7934 27.7343M50.3129 14.3196L50.2571 14.8165L46.4145 14.4023L46.0891 14.3672L45.991 14.055C45.7247 13.2069 45.374 12.3858 44.9436 11.6033L44.7802 11.3062L44.9959 11.0444L47.412 8.11234M47.7981 8.43004C48.0447 8.13034 48.02 7.69856 47.7407 7.42726M47.7981 8.43004L47.412 8.11234M47.7981 8.43004L47.4122 8.11207L47.412 8.11234M47.7407 7.42726L43.3503 3.1689C43.0709 2.89774 42.6262 2.87372 42.3176 3.11317M47.7407 7.42726L47.3926 7.78616M47.7407 7.42726L47.3923 7.78589M42.3176 3.11317L39.2975 5.45856C38.4618 5.02529 37.5848 4.67198 36.6786 4.40379L36.2518 0.670595C36.2083 0.288821 35.8761 0 35.4806 0H29.273C28.8775 0 28.5452 0.288821 28.5017 0.670524L28.0749 4.39997C27.1688 4.66824 26.2917 5.02148 25.456 5.45474L22.436 3.10858M42.3176 3.11317L42.6243 3.50808M42.3176 3.11317L42.6241 3.50823M22.436 3.10858C22.1274 2.86913 21.6827 2.89315 21.4032 3.16431M22.436 3.10858L22.1295 3.50364L25.1493 5.84959L25.402 6.04595L25.6862 5.89863C26.4935 5.48005 27.341 5.13869 28.2168 4.8794L28.534 4.78549L28.5716 4.45682L28.9984 0.727373L28.9985 0.727141C29.0119 0.609569 29.1199 0.5 29.273 0.5H35.4806C35.6336 0.5 35.7416 0.609486 35.7551 0.7272L35.7551 0.727387L36.1819 4.46058L36.2195 4.78932L36.5367 4.88323C37.4125 5.14243 38.26 5.48385 39.0673 5.90244L39.3514 6.04974L39.6042 5.85346L42.6241 3.50823M22.436 3.10858L22.1293 3.50343L22.1293 3.50348C22.0165 3.41615 21.8513 3.42633 21.7515 3.52304L21.4032 3.16431M21.4032 3.16431L17.0129 7.42726M21.4032 3.16431L21.7515 3.52312L17.3616 7.78562L17.0129 7.42726M17.0129 7.42726C16.7339 7.69877 16.7095 8.13055 16.9562 8.43004M17.0129 7.42726L17.3612 7.78598L17.3615 7.78571C17.2681 7.87668 17.2617 8.01429 17.342 8.11192L17.3419 8.11183L16.9562 8.43004M16.9562 8.43004L19.3757 11.3624C18.9295 12.1738 18.5656 13.0254 18.2894 13.9052L14.4446 14.3196C14.0514 14.3618 13.7539 14.6844 13.7539 15.0685V21.0958C13.7539 21.4799 14.0514 21.8025 14.4445 21.8448L18.2854 22.2592C18.5617 23.139 18.9255 23.9906 19.3718 24.802L16.9554 27.7343M16.9562 8.43004L17.3421 8.1121L19.7613 11.0442L19.9773 11.306L19.8138 11.6033C19.3835 12.3858 19.0327 13.2069 18.7664 14.055L18.6684 14.3672L18.343 14.4023L14.4981 14.8167L14.498 14.8167C14.347 14.833 14.2539 14.9515 14.2539 15.0685V21.0958C14.2539 21.2129 14.3471 21.3314 14.4979 21.3476L14.4981 21.3476L18.3391 21.762L18.6644 21.7971L18.7625 22.1094C19.0288 22.9575 19.3795 23.7786 19.8099 24.561L19.9733 24.8582L19.7576 25.1199L17.3415 28.052M16.9554 27.7343C16.7088 28.034 16.7336 28.4658 17.0128 28.7371M16.9554 27.7343L17.3415 28.052M16.9554 27.7343L17.3413 28.0523M17.0128 28.7371L21.4032 33M17.0128 28.7371L17.3611 28.3784C17.2677 28.2875 17.2612 28.15 17.3413 28.0523M17.0128 28.7371L17.3612 28.3785L21.7497 32.6395L21.4032 33M21.4032 33C21.6838 33.2698 22.1284 33.2918 22.4359 33.0512L25.456 30.7058C26.2916 31.1391 27.1687 31.4924 28.0748 31.7606L28.5016 35.4938C28.5451 35.8755 28.8773 36.1644 29.2729 36.1643H35.4805C35.8747 36.1645 36.2064 35.8777 36.2518 35.4975M21.4032 33L21.7515 32.6413L21.7504 32.6402C21.8508 32.736 22.0157 32.7451 22.1278 32.6574L22.1293 32.6563L25.1493 30.3109L25.402 30.1146L25.6861 30.2619C26.4934 30.6805 27.341 31.0219 28.2167 31.2811L28.534 31.375L28.5716 31.7038L28.9984 35.437L28.9984 35.4372C29.0118 35.5548 29.1199 35.6643 29.2728 35.6643H29.2729H35.4805H35.4808C35.6329 35.6644 35.7409 35.556 35.7553 35.4389L35.7551 35.4407L36.2518 35.4975M36.2518 35.4975L36.6786 31.7643C37.5848 31.496 38.4618 31.1428 39.2975 30.7095L42.3175 33.0557M36.2518 35.4975L35.7554 35.4382L36.1819 31.7075L36.2195 31.3788L36.5367 31.2849C37.4125 31.0256 38.26 30.6842 39.0673 30.2657L39.3515 30.1183L39.6042 30.3147L42.624 32.6607M42.3175 33.0557C42.6262 33.2952 43.0709 33.2711 43.3503 33M42.3175 33.0557L42.624 32.6607M42.3175 33.0557L42.6243 32.6609M43.3503 33L47.736 28.7371C48.0152 28.4658 48.04 28.034 47.7934 27.7343M43.3503 33L43.0018 32.6414L43.0021 32.6412M43.3503 33L43.0021 32.6412M47.7934 27.7343L47.4074 28.0522C47.4877 28.1499 47.4811 28.2876 47.3876 28.3785L47.3875 28.3786L43.0021 32.6412M47.412 8.11234C47.4923 8.01471 47.4859 7.87713 47.3926 7.78616M47.3926 7.78616L47.3923 7.78589M47.3926 7.78616L47.3923 7.78589M47.3923 7.78589L43.0022 3.52781L43.0021 3.52771C42.9024 3.43092 42.7371 3.42072 42.6243 3.50808M42.6243 3.50808L42.6241 3.50823M42.6243 3.50808L42.6241 3.50823M17.3415 28.052C17.3415 28.0521 17.3414 28.0522 17.3413 28.0523M17.3415 28.052L17.3413 28.0523M42.624 32.6607C42.6241 32.6607 42.6242 32.6608 42.6243 32.6609M42.624 32.6607L42.6243 32.6609M42.6243 32.6609C42.7371 32.7482 42.9023 32.7379 43.0021 32.6412M49.9479 20.8704L49.5016 20.9187L45.8335 21.315L45.8335 21.315C45.7122 21.3281 45.6239 21.4101 45.5978 21.5052C45.287 22.6443 44.821 23.7376 44.2125 24.7563L44.2124 24.7565C44.1606 24.843 44.1678 24.9503 44.2343 25.031L44.2343 25.031L46.5412 27.8307L46.8343 28.1864L46.5036 28.5074L43.0965 31.8156L42.7846 32.1184L42.4414 31.8518L39.558 29.6118L39.558 29.6118C39.4678 29.5418 39.3383 29.5315 39.2358 29.5893L39.2356 29.5894C38.1881 30.1793 37.0645 30.6306 35.8946 30.9316M49.9479 20.8704L28.8629 30.9316C28.979 30.9618 29.0516 31.0535 29.0626 31.1492L29.0626 31.1497L29.4747 34.7149L29.5258 35.1575H29.9714H34.79H35.236L35.2868 34.7144L35.6949 31.1492C35.7059 31.0533 35.7786 30.9616 35.8946 30.9316M49.9479 20.8704V20.4216V15.7466V15.2977L49.5015 15.2495L45.8297 14.8532L45.776 15.3503M49.9479 20.8704L45.776 15.3503M35.8946 30.9316L35.77 30.4474L35.8949 30.9315C35.8948 30.9315 35.8947 30.9316 35.8946 30.9316ZM44.6332 21.2415L44.6333 21.2411C44.7719 20.7354 45.2111 20.3763 45.7262 20.3208L48.9479 19.9727V16.1955L45.7224 15.8474C45.2074 15.7918 44.768 15.4329 44.6295 14.927L44.6294 14.9267C44.3426 13.8756 43.9125 12.8661 43.3503 11.9249L44.6332 21.2415ZM44.6332 21.2415C44.3464 22.2926 43.9162 23.3022 43.354 24.2435M44.6332 21.2415L43.354 24.2435M35.6451 29.9632L35.6454 29.9631C36.7313 29.6837 37.7736 29.265 38.7447 28.7182L35.6451 29.9632ZM35.6451 29.9632C35.1426 30.0929 34.7612 30.5135 34.7014 31.0355L34.344 34.1575H30.4169L30.0561 31.0355L35.6451 29.9632ZM29.112 29.9631L29.1125 29.9632C29.6147 30.0929 29.9961 30.5131 30.056 31.0349L29.112 29.9631ZM29.112 29.9631C28.0262 29.6838 26.9839 29.265 26.0128 28.7182C25.5612 28.4636 24.996 28.5036 24.586 28.8222L22.0458 30.7954L19.2813 28.1112L21.2948 25.6709L21.2949 25.6707M29.112 29.9631L21.2949 25.6707M21.2949 25.6707C21.6287 25.2657 21.6733 24.6986 21.4035 24.2472C20.8413 23.3059 20.4112 22.2964 20.1243 21.2452L20.1242 21.2449M21.2949 25.6707L20.1242 21.2449M20.1242 21.2449C19.9858 20.739 19.5463 20.3801 19.0313 20.3245L15.8059 19.9764V16.195L19.0313 15.8436C19.0314 15.8436 19.0314 15.8436 19.0315 15.8436C19.5465 15.7879 19.9857 15.4289 20.1242 14.9233L20.1243 14.9228M20.1242 21.2449L20.1243 14.9228M20.1243 14.9228C20.4111 13.8718 20.8412 12.8623 21.4034 11.9211M20.1243 14.9228L21.4034 11.9211M29.1163 6.20116L29.116 6.20123C28.0301 6.48065 26.9878 6.89938 26.0167 7.44621L29.1163 6.20116ZM29.1163 6.20116C29.6189 6.0715 30.0003 5.65091 30.06 5.1289L30.4174 2.00682H34.3402L34.6977 5.12892C34.7574 5.65098 35.1389 6.0714 35.6413 6.20113L35.6417 6.20124M29.1163 6.20116L35.6417 6.20124M35.6417 6.20124C36.7276 6.4806 37.77 6.89943 38.7411 7.44633M35.6417 6.20124L38.7411 7.44633M45.776 15.3503L45.8297 14.8532C45.7084 14.8401 45.6202 14.7582 45.5942 14.6634L45.776 15.3503ZM43.354 24.2435C43.0842 24.6949 43.1288 25.262 43.4626 25.6669M43.354 24.2435L43.4626 25.6669M43.4626 25.6669L45.4764 28.111L42.7117 30.7954L40.1715 28.8222L43.4626 25.6669ZM21.4034 11.9211C21.6733 11.4697 21.6287 10.9025 21.295 10.4974M21.4034 11.9211L21.295 10.4974M21.295 10.4974C21.295 10.4974 21.2949 10.4974 21.2949 10.4974M21.295 10.4974L21.2949 10.4974M21.2949 10.4974L19.2811 8.0534M21.2949 10.4974L19.2811 8.0534M19.2811 8.0534L22.0461 5.36873M19.2811 8.0534L22.0461 5.36873M22.0461 5.36873L24.5899 7.34221L22.0461 5.36873ZM38.7411 7.44633C39.1927 7.70078 39.7577 7.66073 40.1677 7.34223M38.7411 7.44633L40.1677 7.34223M40.1677 7.34223C40.1677 7.34222 40.1677 7.34222 40.1677 7.34221M40.1677 7.34223L40.1677 7.34221M40.1677 7.34221L42.7077 5.36908M40.1677 7.34221L42.7077 5.36908M42.7077 5.36908L45.4728 8.05701M42.7077 5.36908L45.4728 8.05701M45.4728 8.05701L43.4588 10.5012L45.4728 8.05701ZM18.9241 21.3187C19.0453 21.3318 19.1335 21.4137 19.1596 21.5085L19.1596 14.6594C19.1335 14.7544 19.0453 14.8363 18.9241 14.8494L18.9235 14.8494L15.2517 15.2495L14.8059 15.2981V15.7465V20.4253V20.8742L15.2522 20.9224L18.924 21.3187L18.9241 21.3187ZM40.1715 28.8221C39.7615 28.5036 39.1965 28.4636 38.7449 28.718L40.1715 28.8221ZM24.5902 7.34243C25.0002 7.66075 25.5651 7.70072 26.0165 7.44633L24.5902 7.34243ZM43.4588 10.5013C43.125 10.9062 43.0804 11.4733 43.3502 11.9247L43.4588 10.5013Z" stroke="#1C2D5A"/>
<path d="M41.8562 12.9318C38.9266 7.84802 32.3074 6.03267 27.0716 8.87715C21.8358 11.7216 19.9662 18.1488 22.8958 23.2326C22.9305 23.2927 22.9735 23.3479 23.0237 23.3967C23.3265 23.6912 23.8178 23.6915 24.1211 23.3976L29.1903 18.4755L30.9812 20.7945C31.0032 20.823 31.0272 20.8499 31.0532 20.8751C31.3562 21.1694 31.8475 21.1694 32.1506 20.8751L37.0336 16.1338V18.8356H38.5855V14.3151H38.5853C38.5853 13.899 38.238 13.5618 37.8096 13.5616H33.1539V15.0685H35.9364L31.6858 19.1957L29.8949 16.8767C29.7603 16.7012 29.5538 16.5912 29.3292 16.5753C29.1048 16.5621 28.8852 16.6424 28.7255 16.796L23.792 21.5856C22.4579 18.5028 22.989 14.9564 25.172 12.3702C28.4255 8.51565 34.2811 7.95178 38.251 11.1109C42.2208 14.2699 42.8015 19.9555 39.548 23.8101C39.2481 24.1653 38.9261 24.4924 38.5856 24.7914V20.3424H37.0336V25.892C36.5363 26.1728 36.0166 26.406 35.4817 26.5907V21.8493H33.9298V26.9843C33.4173 27.0693 32.8981 27.1128 32.378 27.114V24.1095H30.8261V26.9916C30.3016 26.9069 29.7823 26.7778 29.2742 26.6042V22.6027H27.7222V25.9108C27.2885 25.6676 26.869 25.3877 26.469 25.0695L25.4828 26.2335C27.4268 27.7821 29.8634 28.629 32.3779 28.6302C34.2346 28.6299 36.0601 28.1675 37.6804 27.2872C42.9162 24.4427 44.7858 18.0156 41.8562 12.9318Z" fill="#1C2D5A"/>
</g>
<defs>
<clipPath id="clip0_221_749">
<rect width="37.2456" height="36.1643" fill="white" transform="translate(13.7539)"/>
</clipPath>
</defs>
</svg>
